<svg id="Layer_1" data-name="Layer 1" xmlns="http://www.w3.org/2000/svg" xmlns:xlink="http://www.w3.org/1999/xlink" viewBox="0 0 512 512"><defs><style>.cls-1{fill:url(#linear-gradient);}.cls-2{fill:url(#linear-gradient-2);}.cls-3{fill:url(#linear-gradient-3);}.cls-4{fill:url(#linear-gradient-4);}.cls-5{fill:url(#linear-gradient-5);}.cls-6{fill:none;}.cls-7{fill:url(#linear-gradient-6);}.cls-8{fill:url(#linear-gradient-7);}.cls-9{fill:url(#linear-gradient-8);}.cls-10{fill:url(#linear-gradient-9);}</style><linearGradient id="linear-gradient" x1="221.68" y1="282.34" x2="374.94" y2="153.74" gradientUnits="userSpaceOnUse"><stop offset="0" stop-color="#e20e1f"/><stop offset="0.29" stop-color="#ea5c1d"/><stop offset="1" stop-color="#feeb17"/></linearGradient><linearGradient id="linear-gradient-2" x1="128.68" y1="337.38" x2="143.51" y2="319.71" gradientUnits="userSpaceOnUse"><stop offset="0.13" stop-color="#feeb17"/><stop offset="0.43" stop-color="#feeb17"/></linearGradient><linearGradient id="linear-gradient-3" x1="145.87" y1="360.42" x2="213.82" y2="279.44" gradientUnits="userSpaceOnUse"><stop offset="0.43" stop-color="#feeb17"/><stop offset="1" stop-color="#e20e17"/></linearGradient><linearGradient id="linear-gradient-4" x1="164.61" y1="356.38" x2="176.77" y2="341.88" xlink:href="#linear-gradient-2"/><linearGradient id="linear-gradient-5" x1="150.9" y1="367.14" x2="158.85" y2="357.66" xlink:href="#linear-gradient-2"/><linearGradient id="linear-gradient-6" y1="172.53" x2="379.85" y2="172.53" gradientUnits="userSpaceOnUse"><stop offset="0" stop-color="#64b9e9"/><stop offset="1" stop-color="#354f9c"/></linearGradient><linearGradient id="linear-gradient-7" x1="132.15" y1="339.47" x2="512" y2="339.47" gradientUnits="userSpaceOnUse"><stop offset="0" stop-color="#354f9c"/><stop offset="1" stop-color="#64b9e9"/></linearGradient><linearGradient id="linear-gradient-8" x1="90.25" y1="138.22" x2="379.85" y2="138.22" gradientUnits="userSpaceOnUse"><stop offset="0" stop-color="#354f9c"/><stop offset="1" stop-color="#5992cd"/></linearGradient><linearGradient id="linear-gradient-9" x1="132.15" y1="373.78" x2="421.75" y2="373.78" gradientUnits="userSpaceOnUse"><stop offset="0" stop-color="#5992cd"/><stop offset="1" stop-color="#354f9c"/></linearGradient></defs><path class="cls-1" d="M327.72,285.93a5.22,5.22,0,0,0,8.91-1.55L361,217.79l24.4-66.59a5.22,5.22,0,0,0-5.8-6.94l-69.87,12.17L239.88,168.6a5.22,5.22,0,0,0-3.11,8.49l20.68,24.74a5.22,5.22,0,0,1-.65,7.34l-52.64,44.17a5.22,5.22,0,0,0-.64,7.36L239.83,304a5.23,5.23,0,0,0,7.36.65l52.51-44.07a5.22,5.22,0,0,1,7.36.66Z"/><path class="cls-2" d="M127.15,336l0,.06c1.67,2,5.16,1.84,7.77-.36l8.36-7c2.62-2.2,3.39-5.6,1.71-7.6l0-.06c-1.68-2-5.16-1.83-7.78.36l-8.36,7C126.24,330.61,125.47,334,127.15,336Z"/><path class="cls-3" d="M225.54,296.89l-6.12-7.3-6.12-7.29-6.07-7.23,0-.06-3-3.62c-1.68-2-5.16-1.83-7.78.36l-44.93,37.71c-2.62,2.19-3.38,5.59-1.71,7.59l.05.06c1.68,2,5.16,1.84,7.78-.36l13.91-11.67c2.61-2.2,6.1-2.36,7.77-.36h0c1.68,2,.91,5.4-1.71,7.59l-39.06,32.78c-2.62,2.2-3.38,5.6-1.71,7.6l.05.06c1.68,2,5.16,1.83,7.78-.36l39.06-32.78c2.62-2.2,6.1-2.36,7.78-.37l0,.07c1.68,2,.91,5.39-1.71,7.59l-3,2.5c-2.62,2.19-3.38,5.59-1.71,7.59l0,.06c1.68,2,5.16,1.84,7.78-.36l34-28.53c2.62-2.2,3.38-5.6,1.71-7.59Z"/><path class="cls-4" d="M163.35,355.24l.05.06c1.68,2,5.16,1.83,7.78-.37l5.14-4.31c2.62-2.2,3.39-5.6,1.71-7.6L178,343c-1.68-2-5.16-1.83-7.78.36l-5.14,4.32C162.44,349.84,161.67,353.24,163.35,355.24Z"/><path class="cls-5" d="M150.09,366.36l0,.07c1.68,2,5.16,1.83,7.78-.37l0,0c2.62-2.2,3.38-5.6,1.7-7.6l0-.06c-1.67-2-5.15-1.83-7.77.36l0,0C149.18,361,148.41,364.37,150.09,366.36Z"/><path class="cls-6" d="M256,95.34C167.41,95.34,95.34,167.41,95.34,256a159.71,159.71,0,0,0,10.83,57.88L339,118.5A159.66,159.66,0,0,0,256,95.34Z"/><path class="cls-6" d="M256,416.66c88.59,0,160.66-72.07,160.66-160.66a159.71,159.71,0,0,0-10.83-57.88L173,393.5A159.66,159.66,0,0,0,256,416.66Z"/><path class="cls-7" d="M95.34,256c0-88.59,72.07-160.66,160.66-160.66a159.69,159.69,0,0,1,59.13,11.28c16.09,6.39,34.44,3,47.71-8.11h0C390.46,75.33,383.28,31,349.75,17.78A254.79,254.79,0,0,0,249.47.08C113.15,3.49,2.51,114.94,0,251.29a256.51,256.51,0,0,0,5,55.28c7.15,35.53,49.54,50.61,77.31,27.31l.17-.14a47.68,47.68,0,0,0,16-46A160,160,0,0,1,95.34,256Z"/><path class="cls-8" d="M429.68,178.11l-.18.15a47.68,47.68,0,0,0-16,46,160,160,0,0,1,3.16,31.7c0,88.59-72.07,160.66-160.66,160.66a159.69,159.69,0,0,1-59.13-11.28c-16.09-6.39-34.44-3-47.71,8.11h0c-27.62,23.18-20.45,67.48,13.09,80.73a255.1,255.1,0,0,0,100.27,17.7c136.33-3.41,247-114.86,249.44-251.2a256.55,256.55,0,0,0-5-55.29C499.83,169.9,457.44,154.82,429.68,178.11Z"/><path class="cls-9" d="M258.49,95.25a160,160,0,0,1,56.65,11.22c16.09,6.4,34.44,3,47.7-8.11,21.75-18.25,21.92-49.58,4.64-68.55l-3.39-3.35a47.76,47.76,0,0,0-14.33-8.83A254.28,254.28,0,0,0,284.21,1.42c-3-.33-6-.62-9-.84A239.6,239.6,0,0,0,235.7,12.72a233.4,233.4,0,0,0-124,117c-22,46.72-27.11,97.89-15,146.14a160.36,160.36,0,0,1-1.28-19.1c0-.3,0-.6,0-.91C95.35,168.34,165.7,97,252.81,95.27Z"/><path class="cls-10" d="M253.51,416.75a160,160,0,0,1-56.65-11.22c-16.09-6.4-34.44-3-47.7,8.11-21.75,18.25-21.92,49.58-4.64,68.55l3.39,3.35a47.76,47.76,0,0,0,14.33,8.83,254.28,254.28,0,0,0,65.55,16.21c3,.33,6,.62,9,.84a239.6,239.6,0,0,0,39.54-12.14,233.4,233.4,0,0,0,124.05-117c22-46.72,27.11-97.89,15-146.14a160.36,160.36,0,0,1,1.28,19.1c0,.3,0,.6,0,.91,0,87.51-70.35,158.86-157.46,160.58Z"/></svg>