<svg id="Layer_1" data-name="Layer 1" xmlns="http://www.w3.org/2000/svg" xmlns:xlink="http://www.w3.org/1999/xlink" viewBox="0 0 512 512"><defs><style>.cls-1{fill:url(#linear-gradient);}.cls-2{fill:url(#linear-gradient-2);}.cls-3{fill:#787878;}.cls-4{fill:url(#linear-gradient-3);}.cls-5{opacity:0.3;}.cls-6{fill:#18142f;}.cls-7{fill:url(#linear-gradient-4);}.cls-8{opacity:0.5;}.cls-11,.cls-9{fill:#271128;}.cls-10,.cls-9{opacity:0.4;}</style><linearGradient id="linear-gradient" x1="254.52" y1="425.29" x2="254.52" y2="88.99" gradientUnits="userSpaceOnUse"><stop offset="0.22" stop-color="#312e81"/><stop offset="1" stop-color="#701a75"/></linearGradient><linearGradient id="linear-gradient-2" y1="257.25" x2="512" y2="257.25" gradientUnits="userSpaceOnUse"><stop offset="0" stop-color="#075985"/><stop offset="0.54" stop-color="#7dd3fc"/><stop offset="1" stop-color="#86198f"/></linearGradient><linearGradient id="linear-gradient-3" x1="74.85" y1="74.96" x2="436.95" y2="437.06" gradientUnits="userSpaceOnUse"><stop offset="0.19" stop-color="#ec4899"/><stop offset="0.9" stop-color="#312e81"/></linearGradient><linearGradient id="linear-gradient-4" x1="468.37" y1="409.6" x2="468.37" y2="387.15" gradientUnits="userSpaceOnUse"><stop offset="0" stop-color="#00b2c0"/><stop offset="0.5" stop-color="#47bdd9"/><stop offset="1" stop-color="#6f2382"/></linearGradient></defs><path class="cls-1" d="M505.77,199.54c-13-9.56-113.53-11.16-236.3-9.31l40.59-61.9L335.8,89.07c-11.37-.11-23.24-.11-35.51,0l-26.9,41-39.87,60.81c-125,2.91-224,12.61-230.21,22.86-.09.46,0,1.1-.08,1.55,2,9.71,89,16.31,203.7,16.15L94.3,403.22c-25.8,2.76-41,6-41,9.32.73.72,2.89,2.23,3.64,2.94,14.78,7,98.46,10.51,203.76,9.7,109.78-.85,197.86-16.8,205.77-24.44,0-.05,2.19-1.82,2.17-2.15-.56-8.66-94.44-3.7-209.76-2.81-48.25.37-92.2,2-127,4.28L242.61,231.19q6.36-.08,12.81-.19c133.35-2.28,241.4-17.93,249.26-28.65C504.37,201.21,506.1,200.68,505.77,199.54Z"/><path class="cls-2" d="M505.78,199.68s0-.05-.07,0c-8.37,12.76-117,26-250.22,30.05-137.82,4.23-250.06-2.91-252.18-16a260.86,260.86,0,0,0-3.1,27.77c-1.07,19,2.26,53.62,2.94,56.1,4,13,116.67,20.26,254.71,16,124.81-3.83,228.32-15.59,249.35-27.56a7.15,7.15,0,0,0,3.59-5.56v0c.32-3.32.59-6.65.78-10A255.85,255.85,0,0,0,505.78,199.68Z"/><path class="cls-3" d="M466.18,397.05l-.12.18Z"/><path class="cls-4" d="M101.46,421.18c-25.19-2-42.4-5-48.19-8.64A256.18,256.18,0,0,0,468.6,398.61c-7.62,10-88.35,20.14-190.06,24.08a6,6,0,0,1-5.27-9.28l20.54-31.31L466.2,119.19a8.45,8.45,0,0,0-.17-9.48c-1.91-2.75-5.89-8.12-5.89-8.12l-.41-.56c-1.47-1.93-4.51-5.74-4.53-5.75a256.16,256.16,0,0,0-406.36,10,8.4,8.4,0,0,0,4.44,13.07c26.55,7.3,106,10.76,199.6,7.89,14.52-.45,28.67-1,42.33-1.72a6,6,0,0,1,5.3,9.27L131.94,390.91l-14.85,22.65A17.05,17.05,0,0,1,101.46,421.18Z"/><g class="cls-5"><path class="cls-6" d="M101.57,421.18a17.11,17.11,0,0,0,10-2.32c-27.17-1.62-47.45-3.94-58-6.91a1.3,1.3,0,0,0-.18.59h0C59.17,416.19,76.38,419.14,101.57,421.18Z"/><path class="cls-6" d="M278.6,422.77c101.7-3.93,182.47-14.17,190.1-24.12-.12-2-5-3.41-15.8-4.2-18.61,9.09-89.66,23.67-178.8,26.56A5.91,5.91,0,0,0,278.6,422.77Z"/><polygon class="cls-7" points="468.37 398.38 468.37 398.37 468.37 398.38 468.37 398.38 468.37 398.38"/></g><g class="cls-8"><path class="cls-9" d="M61.61,226.86c14.74,1.18,31.86,2.15,50.86,2.88,24.69.87,94.87.68,124.84.47l2.59-3.94c-92.63.15-209.52-5.23-235.81-13.42a5,5,0,0,0-.79.92C4.22,219.44,26,223.87,61.61,226.86Z"/><g class="cls-10"><path class="cls-11" d="M505.8,199.43c-2.42-1.77-7.84-3.26-15.83-4.51-12.22,6.26-43.12,13.27-85.91,19l-4.53,6.9c60.42-5.9,101.21-13.68,106.21-21.3,0,0,.06,0,.07,0S505.81,199.48,505.8,199.43Z"/></g></g></svg>